<svg width="1185" height="158" viewBox="0 0 1185 158" fill="none" xmlns="http://www.w3.org/2000/svg">
<rect width="1185" height="158" fill="white"/>
<rect x="53" y="22" width="20" height="20" rx="2" fill="#279D4B"/>
<rect x="133" y="22" width="20" height="20" rx="2" fill="#279D4B"/>
<rect x="509" y="22" width="20" height="20" rx="2" fill="#279D4B"/>
<rect x="725" y="22" width="20" height="20" rx="2" fill="#279D4B"/>
<rect x="805" y="22" width="20" height="20" rx="2" fill="#279D4B"/>
<rect x="245" y="22" width="20" height="20" rx="2" fill="#279D4B"/>
<rect x="325" y="22" width="20" height="20" rx="2" fill="#279D4B"/>
<rect x="1017" y="22" width="20" height="20" rx="2" fill="#279D4B"/>
<rect x="1097" y="22" width="20" height="20" rx="2" fill="#279D4B"/>
<rect x="429" y="22" width="20" height="20" rx="2" fill="#279D4B"/>
<rect x="613" y="22" width="20" height="20" rx="2" fill="#279D4B"/>
<rect x="905" y="22" width="20" height="20" rx="2" fill="#279D4B"/>
<rect x="77" y="22" width="20" height="20" rx="2" fill="#279D4B"/>
<rect x="101" y="22" width="20" height="20" rx="2" fill="#279D4B"/>
<rect x="157" y="22" width="20" height="20" rx="2" fill="#279D4B"/>
<rect x="533" y="22" width="20" height="20" rx="2" fill="#279D4B"/>
<rect x="749" y="22" width="20" height="20" rx="2" fill="#279D4B"/>
<rect x="829" y="46" width="20" height="20" rx="2" fill="#279D4B"/>
<rect x="269" y="22" width="20" height="20" rx="2" fill="#279D4B"/>
<rect x="349" y="22" width="20" height="20" rx="2" fill="#279D4B"/>
<rect x="1041" y="22" width="20" height="20" rx="2" fill="#279D4B"/>
<rect x="1121" y="22" width="20" height="20" rx="2" fill="#279D4B"/>
<rect x="453" y="22" width="20" height="20" rx="2" fill="#279D4B"/>
<rect x="637" y="22" width="20" height="20" rx="2" fill="#279D4B"/>
<rect x="929" y="22" width="20" height="20" rx="2" fill="#279D4B"/>
<rect x="181" y="22" width="20" height="20" rx="2" fill="#279D4B"/>
<rect x="557" y="22" width="20" height="20" rx="2" fill="#279D4B"/>
<rect x="773" y="22" width="20" height="20" rx="2" fill="#279D4B"/>
<rect x="873" y="22" width="20" height="20" rx="2" fill="#279D4B"/>
<rect x="293" y="22" width="20" height="20" rx="2" fill="#279D4B"/>
<rect x="373" y="22" width="20" height="20" rx="2" fill="#279D4B"/>
<rect x="1065" y="22" width="20" height="20" rx="2" fill="#279D4B"/>
<rect x="1145" y="22" width="20" height="20" rx="2" fill="#279D4B"/>
<rect x="77" y="70" width="20" height="20" rx="2" fill="#279D4B"/>
<rect x="101" y="70" width="20" height="20" rx="2" fill="#279D4B"/>
<rect x="157" y="70" width="20" height="20" rx="2" fill="#279D4B"/>
<rect x="533" y="70" width="20" height="20" rx="2" fill="#279D4B"/>
<rect x="749" y="70" width="20" height="20" rx="2" fill="#279D4B"/>
<rect x="873" y="46" width="20" height="20" rx="2" fill="#279D4B"/>
<rect x="269" y="70" width="20" height="20" rx="2" fill="#279D4B"/>
<rect x="349" y="70" width="20" height="20" rx="2" fill="#279D4B"/>
<rect x="1041" y="70" width="20" height="20" rx="2" fill="#279D4B"/>
<rect x="1121" y="70" width="20" height="20" rx="2" fill="#279D4B"/>
<rect x="453" y="118" width="20" height="20" rx="2" fill="#279D4B"/>
<rect x="637" y="118" width="20" height="20" rx="2" fill="#279D4B"/>
<rect x="929" y="118" width="20" height="20" rx="2" fill="#279D4B"/>
<rect x="181" y="70" width="20" height="20" rx="2" fill="#279D4B"/>
<rect x="557" y="70" width="20" height="20" rx="2" fill="#279D4B"/>
<rect x="773" y="70" width="20" height="20" rx="2" fill="#279D4B"/>
<rect x="873" y="70" width="20" height="20" rx="2" fill="#279D4B"/>
<rect x="293" y="70" width="20" height="20" rx="2" fill="#279D4B"/>
<rect x="373" y="70" width="20" height="20" rx="2" fill="#279D4B"/>
<rect x="1065" y="70" width="20" height="20" rx="2" fill="#279D4B"/>
<rect x="1145" y="70" width="20" height="20" rx="2" fill="#279D4B"/>
<rect x="477" y="70" width="20" height="20" rx="2" fill="#279D4B"/>
<rect x="293" y="46" width="20" height="20" rx="2" fill="#279D4B"/>
<rect x="373" y="46" width="20" height="20" rx="2" fill="#279D4B"/>
<rect x="1065" y="46" width="20" height="20" rx="2" fill="#279D4B"/>
<rect x="1121" y="118" width="20" height="20" rx="2" fill="#279D4B"/>
<rect x="477" y="46" width="20" height="20" rx="2" fill="#279D4B"/>
<rect x="661" y="22" width="20" height="20" rx="2" fill="#279D4B"/>
<rect x="953" y="22" width="20" height="20" rx="2" fill="#279D4B"/>
<rect x="53" y="46" width="20" height="20" rx="2" fill="#279D4B"/>
<rect x="133" y="46" width="20" height="20" rx="2" fill="#279D4B"/>
<rect x="509" y="46" width="20" height="20" rx="2" fill="#279D4B"/>
<rect x="725" y="46" width="20" height="20" rx="2" fill="#279D4B"/>
<rect x="805" y="46" width="20" height="20" rx="2" fill="#279D4B"/>
<rect x="245" y="46" width="20" height="20" rx="2" fill="#279D4B"/>
<rect x="325" y="46" width="20" height="20" rx="2" fill="#279D4B"/>
<rect x="1017" y="46" width="20" height="20" rx="2" fill="#279D4B"/>
<rect x="1097" y="46" width="20" height="20" rx="2" fill="#279D4B"/>
<rect x="429" y="46" width="20" height="20" rx="2" fill="#279D4B"/>
<rect x="613" y="46" width="20" height="20" rx="2" fill="#279D4B"/>
<rect x="905" y="46" width="20" height="20" rx="2" fill="#279D4B"/>
<rect x="53" y="70" width="20" height="20" rx="2" fill="#279D4B"/>
<rect x="133" y="70" width="20" height="20" rx="2" fill="#279D4B"/>
<rect x="509" y="70" width="20" height="20" rx="2" fill="#279D4B"/>
<rect x="725" y="70" width="20" height="20" rx="2" fill="#279D4B"/>
<rect x="805" y="70" width="20" height="20" rx="2" fill="#279D4B"/>
<rect x="245" y="70" width="20" height="20" rx="2" fill="#279D4B"/>
<rect x="325" y="70" width="20" height="20" rx="2" fill="#279D4B"/>
<rect x="1017" y="70" width="20" height="20" rx="2" fill="#279D4B"/>
<rect x="1097" y="70" width="20" height="20" rx="2" fill="#279D4B"/>
<rect x="429" y="70" width="20" height="20" rx="2" fill="#279D4B"/>
<rect x="613" y="70" width="20" height="20" rx="2" fill="#279D4B"/>
<rect x="905" y="70" width="20" height="20" rx="2" fill="#279D4B"/>
<rect x="53" y="94" width="20" height="20" rx="2" fill="#279D4B"/>
<rect x="133" y="94" width="20" height="20" rx="2" fill="#279D4B"/>
<rect x="509" y="94" width="20" height="20" rx="2" fill="#279D4B"/>
<rect x="725" y="94" width="20" height="20" rx="2" fill="#279D4B"/>
<rect x="805" y="94" width="20" height="20" rx="2" fill="#279D4B"/>
<rect x="245" y="94" width="20" height="20" rx="2" fill="#279D4B"/>
<rect x="325" y="94" width="20" height="20" rx="2" fill="#279D4B"/>
<rect x="1017" y="94" width="20" height="20" rx="2" fill="#279D4B"/>
<rect x="429" y="94" width="20" height="20" rx="2" fill="#279D4B"/>
<rect x="613" y="94" width="20" height="20" rx="2" fill="#279D4B"/>
<rect x="905" y="94" width="20" height="20" rx="2" fill="#279D4B"/>
<rect x="21" y="46" width="20" height="20" rx="2" fill="#279D4B"/>
<rect x="213" y="46" width="20" height="20" rx="2" fill="#279D4B"/>
<rect x="21" y="70" width="20" height="20" rx="2" fill="#279D4B"/>
<rect x="213" y="70" width="20" height="20" rx="2" fill="#279D4B"/>
<rect x="21" y="94" width="20" height="20" rx="2" fill="#279D4B"/>
<rect x="213" y="94" width="20" height="20" rx="2" fill="#279D4B"/>
<rect x="21" y="118" width="20" height="20" rx="2" fill="#279D4B"/>
<rect x="213" y="118" width="20" height="20" rx="2" fill="#279D4B"/>
<rect x="53" y="118" width="20" height="20" rx="2" fill="#279D4B"/>
<rect x="133" y="118" width="20" height="20" rx="2" fill="#279D4B"/>
<rect x="509" y="118" width="20" height="20" rx="2" fill="#279D4B"/>
<rect x="725" y="118" width="20" height="20" rx="2" fill="#279D4B"/>
<rect x="805" y="118" width="20" height="20" rx="2" fill="#279D4B"/>
<rect x="245" y="118" width="20" height="20" rx="2" fill="#279D4B"/>
<rect x="325" y="118" width="20" height="20" rx="2" fill="#279D4B"/>
<rect x="1017" y="118" width="20" height="20" rx="2" fill="#279D4B"/>
<rect x="1097" y="118" width="20" height="20" rx="2" fill="#279D4B"/>
<rect x="429" y="118" width="20" height="20" rx="2" fill="#279D4B"/>
<rect x="613" y="118" width="20" height="20" rx="2" fill="#279D4B"/>
<rect x="905" y="118" width="20" height="20" rx="2" fill="#279D4B"/>
<rect x="157" y="118" width="20" height="20" rx="2" fill="#279D4B"/>
<rect x="533" y="118" width="20" height="20" rx="2" fill="#279D4B"/>
<rect x="749" y="118" width="20" height="20" rx="2" fill="#279D4B"/>
<rect x="873" y="94" width="20" height="20" rx="2" fill="#279D4B"/>
<rect x="839" y="70" width="20" height="20" rx="2" fill="#279D4B"/>
<rect x="849" y="94" width="20" height="20" rx="2" fill="#279D4B"/>
<rect x="279" y="94" width="20" height="20" rx="2" fill="#279D4B"/>
<rect x="373" y="94" width="20" height="20" rx="2" fill="#279D4B"/>
<rect x="1065" y="94" width="20" height="20" rx="2" fill="#279D4B"/>
<rect x="1145" y="94" width="20" height="20" rx="2" fill="#279D4B"/>
<rect x="477" y="94" width="20" height="20" rx="2" fill="#279D4B"/>
<rect x="661" y="118" width="20" height="20" rx="2" fill="#279D4B"/>
<rect x="953" y="118" width="20" height="20" rx="2" fill="#279D4B"/>
<rect x="181" y="118" width="20" height="20" rx="2" fill="#279D4B"/>
<rect x="557" y="118" width="20" height="20" rx="2" fill="#279D4B"/>
<rect x="773" y="118" width="20" height="20" rx="2" fill="#279D4B"/>
<rect x="873" y="118" width="20" height="20" rx="2" fill="#279D4B"/>
<rect x="293" y="118" width="20" height="20" rx="2" fill="#279D4B"/>
<rect x="373" y="118" width="20" height="20" rx="2" fill="#279D4B"/>
<rect x="1065" y="118" width="20" height="20" rx="2" fill="#279D4B"/>
<rect x="1145" y="118" width="20" height="20" rx="2" fill="#279D4B"/>
<rect x="20" y="21" width="22" height="22" rx="11" fill="#D20220"/>
<rect x="212" y="20" width="22" height="22" rx="11" fill="#D20220"/>
<rect x="693" y="46" width="20" height="20" rx="2" fill="#279D4B"/>
<rect x="985" y="46" width="20" height="20" rx="2" fill="#279D4B"/>
<rect x="693" y="70" width="20" height="20" rx="2" fill="#279D4B"/>
<rect x="985" y="70" width="20" height="20" rx="2" fill="#279D4B"/>
<rect x="693" y="94" width="20" height="20" rx="2" fill="#279D4B"/>
<rect x="985" y="94" width="20" height="20" rx="2" fill="#279D4B"/>
<rect x="693" y="118" width="20" height="20" rx="2" fill="#279D4B"/>
<rect x="985" y="118" width="20" height="20" rx="2" fill="#279D4B"/>
<rect x="692" y="20" width="22" height="22" rx="11" fill="#D20220"/>
<rect x="984" y="20" width="22" height="22" rx="11" fill="#D20220"/>
</svg>
